<mxfile host="app.diagrams.net" modified="2022-07-26T22:57:22.064Z" agent="5.0 (Windows NT 10.0; Win64; x64) AppleWebKit/537.36 (KHTML, like Gecko) Chrome/103.0.5060.134 Safari/537.36 Edg/103.0.1264.71" etag="sGrpOjU6eMk32OGO958D" version="20.1.3" type="github">
  <diagram id="KVatFsfOx954qEapuVoB" name="Page-1">
    <mxGraphModel dx="1102" dy="1456" grid="1" gridSize="10" guides="1" tooltips="1" connect="1" arrows="1" fold="1" page="1" pageScale="1" pageWidth="1100" pageHeight="850" math="0" shadow="0">
      <root>
        <mxCell id="0" />
        <mxCell id="1" parent="0" />
        <mxCell id="A85PYch1o4Z-2x9sGvwN-1" value="" style="ellipse;html=1;shape=endState;fillColor=#000000;strokeColor=#ff0000;" vertex="1" parent="1">
          <mxGeometry x="80" y="765" width="30" height="30" as="geometry" />
        </mxCell>
        <mxCell id="A85PYch1o4Z-2x9sGvwN-2" value="" style="shape=providedRequiredInterface;html=1;verticalLabelPosition=bottom;sketch=0;" vertex="1" parent="1">
          <mxGeometry x="100" y="90" width="20" height="20" as="geometry" />
        </mxCell>
        <mxCell id="A85PYch1o4Z-2x9sGvwN-3" value="" style="endArrow=classic;html=1;rounded=0;" edge="1" parent="1">
          <mxGeometry width="50" height="50" relative="1" as="geometry">
            <mxPoint x="120" y="100" as="sourcePoint" />
            <mxPoint x="200" y="100" as="targetPoint" />
          </mxGeometry>
        </mxCell>
        <mxCell id="A85PYch1o4Z-2x9sGvwN-4" value="" style="rounded=1;whiteSpace=wrap;html=1;" vertex="1" parent="1">
          <mxGeometry x="200" y="70" width="120" height="60" as="geometry" />
        </mxCell>
        <mxCell id="A85PYch1o4Z-2x9sGvwN-5" value="First Line tech&lt;br&gt;diagnosis" style="text;html=1;resizable=0;autosize=1;align=center;verticalAlign=middle;points=[];fillColor=none;strokeColor=none;rounded=0;" vertex="1" parent="1">
          <mxGeometry x="210" y="80" width="100" height="40" as="geometry" />
        </mxCell>
        <mxCell id="A85PYch1o4Z-2x9sGvwN-8" value="" style="endArrow=classic;html=1;rounded=0;" edge="1" parent="1" target="A85PYch1o4Z-2x9sGvwN-9">
          <mxGeometry width="50" height="50" relative="1" as="geometry">
            <mxPoint x="320" y="100" as="sourcePoint" />
            <mxPoint x="390" y="100" as="targetPoint" />
          </mxGeometry>
        </mxCell>
        <mxCell id="A85PYch1o4Z-2x9sGvwN-9" value="" style="rhombus;whiteSpace=wrap;html=1;" vertex="1" parent="1">
          <mxGeometry x="380" y="70" width="50" height="50" as="geometry" />
        </mxCell>
        <mxCell id="A85PYch1o4Z-2x9sGvwN-10" value="Could be fixed&lt;br&gt;right now?" style="text;html=1;resizable=0;autosize=1;align=center;verticalAlign=middle;points=[];fillColor=none;strokeColor=none;rounded=0;" vertex="1" parent="1">
          <mxGeometry x="350" y="20" width="100" height="40" as="geometry" />
        </mxCell>
        <mxCell id="A85PYch1o4Z-2x9sGvwN-11" value="" style="endArrow=classic;html=1;rounded=0;" edge="1" parent="1">
          <mxGeometry width="50" height="50" relative="1" as="geometry">
            <mxPoint x="430" y="100" as="sourcePoint" />
            <mxPoint x="500" y="100" as="targetPoint" />
          </mxGeometry>
        </mxCell>
        <mxCell id="A85PYch1o4Z-2x9sGvwN-12" value="No" style="text;html=1;resizable=0;autosize=1;align=center;verticalAlign=middle;points=[];fillColor=none;strokeColor=none;rounded=0;" vertex="1" parent="1">
          <mxGeometry x="440" y="85" width="40" height="30" as="geometry" />
        </mxCell>
        <mxCell id="A85PYch1o4Z-2x9sGvwN-13" value="" style="rounded=1;whiteSpace=wrap;html=1;" vertex="1" parent="1">
          <mxGeometry x="500" y="70" width="120" height="60" as="geometry" />
        </mxCell>
        <mxCell id="A85PYch1o4Z-2x9sGvwN-14" value="Assign service&lt;br&gt;center/team" style="text;html=1;resizable=0;autosize=1;align=center;verticalAlign=middle;points=[];fillColor=none;strokeColor=none;rounded=0;" vertex="1" parent="1">
          <mxGeometry x="500" y="80" width="100" height="40" as="geometry" />
        </mxCell>
        <mxCell id="A85PYch1o4Z-2x9sGvwN-16" value="" style="endArrow=classic;html=1;rounded=0;" edge="1" parent="1" target="A85PYch1o4Z-2x9sGvwN-17">
          <mxGeometry width="50" height="50" relative="1" as="geometry">
            <mxPoint x="620" y="100" as="sourcePoint" />
            <mxPoint x="680" y="100" as="targetPoint" />
          </mxGeometry>
        </mxCell>
        <mxCell id="A85PYch1o4Z-2x9sGvwN-17" value="" style="rhombus;whiteSpace=wrap;html=1;" vertex="1" parent="1">
          <mxGeometry x="670" y="75" width="50" height="50" as="geometry" />
        </mxCell>
        <mxCell id="A85PYch1o4Z-2x9sGvwN-19" value="" style="endArrow=classic;html=1;rounded=0;entryX=1;entryY=0.5;entryDx=0;entryDy=0;" edge="1" parent="1" target="A85PYch1o4Z-2x9sGvwN-17">
          <mxGeometry width="50" height="50" relative="1" as="geometry">
            <mxPoint x="780" y="100" as="sourcePoint" />
            <mxPoint x="830" y="50" as="targetPoint" />
          </mxGeometry>
        </mxCell>
        <mxCell id="A85PYch1o4Z-2x9sGvwN-20" value="" style="endArrow=none;html=1;rounded=0;" edge="1" parent="1">
          <mxGeometry width="50" height="50" relative="1" as="geometry">
            <mxPoint x="780" y="100" as="sourcePoint" />
            <mxPoint x="1050" y="100" as="targetPoint" />
          </mxGeometry>
        </mxCell>
        <mxCell id="A85PYch1o4Z-2x9sGvwN-21" value="" style="endArrow=none;html=1;rounded=0;" edge="1" parent="1">
          <mxGeometry width="50" height="50" relative="1" as="geometry">
            <mxPoint x="1050" y="770" as="sourcePoint" />
            <mxPoint x="1050" y="100" as="targetPoint" />
          </mxGeometry>
        </mxCell>
        <mxCell id="A85PYch1o4Z-2x9sGvwN-22" value="" style="endArrow=none;html=1;rounded=0;" edge="1" parent="1">
          <mxGeometry width="50" height="50" relative="1" as="geometry">
            <mxPoint x="330" y="780" as="sourcePoint" />
            <mxPoint x="1050" y="770" as="targetPoint" />
          </mxGeometry>
        </mxCell>
        <mxCell id="A85PYch1o4Z-2x9sGvwN-23" value="No" style="text;html=1;resizable=0;autosize=1;align=center;verticalAlign=middle;points=[];fillColor=none;strokeColor=none;rounded=0;" vertex="1" parent="1">
          <mxGeometry x="350" y="760" width="40" height="30" as="geometry" />
        </mxCell>
        <mxCell id="A85PYch1o4Z-2x9sGvwN-24" value="" style="rhombus;whiteSpace=wrap;html=1;" vertex="1" parent="1">
          <mxGeometry x="290" y="760" width="40" height="40" as="geometry" />
        </mxCell>
        <mxCell id="A85PYch1o4Z-2x9sGvwN-26" value="" style="endArrow=classic;html=1;rounded=0;entryX=1;entryY=0.5;entryDx=0;entryDy=0;" edge="1" parent="1" target="A85PYch1o4Z-2x9sGvwN-1">
          <mxGeometry width="50" height="50" relative="1" as="geometry">
            <mxPoint x="290" y="780" as="sourcePoint" />
            <mxPoint x="340" y="730" as="targetPoint" />
          </mxGeometry>
        </mxCell>
        <mxCell id="A85PYch1o4Z-2x9sGvwN-27" value="Yes" style="text;html=1;resizable=0;autosize=1;align=center;verticalAlign=middle;points=[];fillColor=none;strokeColor=none;rounded=0;" vertex="1" parent="1">
          <mxGeometry x="190" y="765" width="40" height="30" as="geometry" />
        </mxCell>
        <mxCell id="A85PYch1o4Z-2x9sGvwN-28" value="" style="endArrow=classic;html=1;rounded=0;exitX=0.5;exitY=1;exitDx=0;exitDy=0;" edge="1" parent="1" source="A85PYch1o4Z-2x9sGvwN-9" target="A85PYch1o4Z-2x9sGvwN-29">
          <mxGeometry width="50" height="50" relative="1" as="geometry">
            <mxPoint x="420" y="170" as="sourcePoint" />
            <mxPoint x="405" y="641" as="targetPoint" />
          </mxGeometry>
        </mxCell>
        <mxCell id="A85PYch1o4Z-2x9sGvwN-29" value="" style="rhombus;whiteSpace=wrap;html=1;" vertex="1" parent="1">
          <mxGeometry x="380" y="610" width="50" height="50" as="geometry" />
        </mxCell>
        <mxCell id="A85PYch1o4Z-2x9sGvwN-30" value="" style="rounded=1;whiteSpace=wrap;html=1;" vertex="1" parent="1">
          <mxGeometry x="220" y="610" width="120" height="60" as="geometry" />
        </mxCell>
        <mxCell id="A85PYch1o4Z-2x9sGvwN-31" value="" style="endArrow=classic;html=1;rounded=0;entryX=0.5;entryY=0;entryDx=0;entryDy=0;" edge="1" parent="1" target="A85PYch1o4Z-2x9sGvwN-24">
          <mxGeometry width="50" height="50" relative="1" as="geometry">
            <mxPoint x="310" y="670" as="sourcePoint" />
            <mxPoint x="360" y="620" as="targetPoint" />
          </mxGeometry>
        </mxCell>
        <mxCell id="A85PYch1o4Z-2x9sGvwN-32" value="" style="endArrow=classic;html=1;rounded=0;entryX=1;entryY=0.5;entryDx=0;entryDy=0;" edge="1" parent="1" target="A85PYch1o4Z-2x9sGvwN-30">
          <mxGeometry width="50" height="50" relative="1" as="geometry">
            <mxPoint x="380" y="640" as="sourcePoint" />
            <mxPoint x="420" y="610" as="targetPoint" />
          </mxGeometry>
        </mxCell>
        <mxCell id="A85PYch1o4Z-2x9sGvwN-33" value="Maintain" style="text;html=1;resizable=0;autosize=1;align=center;verticalAlign=middle;points=[];fillColor=none;strokeColor=none;rounded=0;" vertex="1" parent="1">
          <mxGeometry x="240" y="625" width="70" height="30" as="geometry" />
        </mxCell>
        <mxCell id="A85PYch1o4Z-2x9sGvwN-34" value="Maintenance inquiry" style="text;html=1;resizable=0;autosize=1;align=center;verticalAlign=middle;points=[];fillColor=none;strokeColor=none;rounded=0;" vertex="1" parent="1">
          <mxGeometry x="35" y="125" width="130" height="30" as="geometry" />
        </mxCell>
        <mxCell id="A85PYch1o4Z-2x9sGvwN-35" value="" style="rounded=1;whiteSpace=wrap;html=1;" vertex="1" parent="1">
          <mxGeometry x="690" y="160" width="120" height="60" as="geometry" />
        </mxCell>
        <mxCell id="A85PYch1o4Z-2x9sGvwN-36" value="" style="rhombus;whiteSpace=wrap;html=1;" vertex="1" parent="1">
          <mxGeometry x="730" y="260" width="40" height="40" as="geometry" />
        </mxCell>
        <mxCell id="A85PYch1o4Z-2x9sGvwN-37" value="" style="rounded=1;whiteSpace=wrap;html=1;" vertex="1" parent="1">
          <mxGeometry x="580" y="310" width="120" height="60" as="geometry" />
        </mxCell>
        <mxCell id="A85PYch1o4Z-2x9sGvwN-38" value="" style="rhombus;whiteSpace=wrap;html=1;" vertex="1" parent="1">
          <mxGeometry x="620" y="405" width="40" height="40" as="geometry" />
        </mxCell>
        <mxCell id="A85PYch1o4Z-2x9sGvwN-39" value="" style="rhombus;whiteSpace=wrap;html=1;" vertex="1" parent="1">
          <mxGeometry x="780" y="455" width="40" height="40" as="geometry" />
        </mxCell>
        <mxCell id="A85PYch1o4Z-2x9sGvwN-40" value="" style="rounded=1;whiteSpace=wrap;html=1;" vertex="1" parent="1">
          <mxGeometry x="870" y="435" width="120" height="60" as="geometry" />
        </mxCell>
        <mxCell id="A85PYch1o4Z-2x9sGvwN-41" value="" style="rounded=1;whiteSpace=wrap;html=1;" vertex="1" parent="1">
          <mxGeometry x="490" y="530" width="120" height="60" as="geometry" />
        </mxCell>
        <mxCell id="A85PYch1o4Z-2x9sGvwN-42" value="" style="rounded=1;whiteSpace=wrap;html=1;" vertex="1" parent="1">
          <mxGeometry x="490" y="640" width="120" height="60" as="geometry" />
        </mxCell>
        <mxCell id="A85PYch1o4Z-2x9sGvwN-44" value="" style="endArrow=classic;html=1;rounded=0;entryX=0.075;entryY=-0.05;entryDx=0;entryDy=0;entryPerimeter=0;" edge="1" parent="1" target="A85PYch1o4Z-2x9sGvwN-35">
          <mxGeometry width="50" height="50" relative="1" as="geometry">
            <mxPoint x="700" y="125" as="sourcePoint" />
            <mxPoint x="750" y="75" as="targetPoint" />
          </mxGeometry>
        </mxCell>
        <mxCell id="A85PYch1o4Z-2x9sGvwN-46" value="" style="endArrow=classic;html=1;rounded=0;entryX=0.5;entryY=0;entryDx=0;entryDy=0;" edge="1" parent="1" target="A85PYch1o4Z-2x9sGvwN-36">
          <mxGeometry width="50" height="50" relative="1" as="geometry">
            <mxPoint x="750" y="220" as="sourcePoint" />
            <mxPoint x="800" y="170" as="targetPoint" />
          </mxGeometry>
        </mxCell>
        <mxCell id="A85PYch1o4Z-2x9sGvwN-48" value="" style="endArrow=none;html=1;rounded=0;" edge="1" parent="1">
          <mxGeometry width="50" height="50" relative="1" as="geometry">
            <mxPoint x="770" y="290" as="sourcePoint" />
            <mxPoint x="800" y="290" as="targetPoint" />
          </mxGeometry>
        </mxCell>
        <mxCell id="A85PYch1o4Z-2x9sGvwN-49" value="" style="endArrow=classic;html=1;rounded=0;entryX=0.5;entryY=0;entryDx=0;entryDy=0;" edge="1" parent="1" target="A85PYch1o4Z-2x9sGvwN-39">
          <mxGeometry width="50" height="50" relative="1" as="geometry">
            <mxPoint x="800" y="290" as="sourcePoint" />
            <mxPoint x="850" y="240" as="targetPoint" />
          </mxGeometry>
        </mxCell>
        <mxCell id="A85PYch1o4Z-2x9sGvwN-50" value="No" style="text;html=1;resizable=0;autosize=1;align=center;verticalAlign=middle;points=[];fillColor=none;strokeColor=none;rounded=0;" vertex="1" parent="1">
          <mxGeometry x="770" y="275" width="40" height="30" as="geometry" />
        </mxCell>
        <mxCell id="A85PYch1o4Z-2x9sGvwN-51" value="" style="endArrow=none;html=1;rounded=0;startArrow=none;" edge="1" parent="1" source="A85PYch1o4Z-2x9sGvwN-52">
          <mxGeometry width="50" height="50" relative="1" as="geometry">
            <mxPoint x="750" y="340" as="sourcePoint" />
            <mxPoint x="750" y="300" as="targetPoint" />
          </mxGeometry>
        </mxCell>
        <mxCell id="A85PYch1o4Z-2x9sGvwN-52" value="Yes" style="text;html=1;resizable=0;autosize=1;align=center;verticalAlign=middle;points=[];fillColor=none;strokeColor=none;rounded=0;" vertex="1" parent="1">
          <mxGeometry x="730" y="300" width="40" height="30" as="geometry" />
        </mxCell>
        <mxCell id="A85PYch1o4Z-2x9sGvwN-53" value="" style="endArrow=none;html=1;rounded=0;" edge="1" parent="1" target="A85PYch1o4Z-2x9sGvwN-52">
          <mxGeometry width="50" height="50" relative="1" as="geometry">
            <mxPoint x="750" y="340" as="sourcePoint" />
            <mxPoint x="750" y="300" as="targetPoint" />
          </mxGeometry>
        </mxCell>
        <mxCell id="A85PYch1o4Z-2x9sGvwN-54" value="" style="endArrow=classic;html=1;rounded=0;entryX=1;entryY=0.5;entryDx=0;entryDy=0;" edge="1" parent="1" target="A85PYch1o4Z-2x9sGvwN-37">
          <mxGeometry width="50" height="50" relative="1" as="geometry">
            <mxPoint x="750" y="340" as="sourcePoint" />
            <mxPoint x="800" y="290" as="targetPoint" />
          </mxGeometry>
        </mxCell>
        <mxCell id="A85PYch1o4Z-2x9sGvwN-55" value="" style="endArrow=classic;html=1;rounded=0;entryX=0.5;entryY=0;entryDx=0;entryDy=0;" edge="1" parent="1" target="A85PYch1o4Z-2x9sGvwN-38">
          <mxGeometry width="50" height="50" relative="1" as="geometry">
            <mxPoint x="640" y="370" as="sourcePoint" />
            <mxPoint x="690" y="320" as="targetPoint" />
          </mxGeometry>
        </mxCell>
        <mxCell id="A85PYch1o4Z-2x9sGvwN-56" value="" style="endArrow=none;html=1;rounded=0;" edge="1" parent="1">
          <mxGeometry width="50" height="50" relative="1" as="geometry">
            <mxPoint x="620" y="425" as="sourcePoint" />
            <mxPoint x="540" y="425" as="targetPoint" />
          </mxGeometry>
        </mxCell>
        <mxCell id="A85PYch1o4Z-2x9sGvwN-57" value="" style="endArrow=classic;html=1;rounded=0;entryX=0.392;entryY=-0.033;entryDx=0;entryDy=0;entryPerimeter=0;" edge="1" parent="1" target="A85PYch1o4Z-2x9sGvwN-41">
          <mxGeometry width="50" height="50" relative="1" as="geometry">
            <mxPoint x="540" y="425" as="sourcePoint" />
            <mxPoint x="590" y="375" as="targetPoint" />
          </mxGeometry>
        </mxCell>
        <mxCell id="A85PYch1o4Z-2x9sGvwN-58" value="" style="endArrow=classic;html=1;rounded=0;entryX=0;entryY=0.633;entryDx=0;entryDy=0;entryPerimeter=0;" edge="1" parent="1" target="A85PYch1o4Z-2x9sGvwN-40">
          <mxGeometry width="50" height="50" relative="1" as="geometry">
            <mxPoint x="820" y="475" as="sourcePoint" />
            <mxPoint x="870" y="425" as="targetPoint" />
          </mxGeometry>
        </mxCell>
        <mxCell id="A85PYch1o4Z-2x9sGvwN-59" value="" style="endArrow=classic;html=1;rounded=0;entryX=0.367;entryY=-0.05;entryDx=0;entryDy=0;entryPerimeter=0;" edge="1" parent="1" target="A85PYch1o4Z-2x9sGvwN-42">
          <mxGeometry width="50" height="50" relative="1" as="geometry">
            <mxPoint x="535" y="590" as="sourcePoint" />
            <mxPoint x="585" y="540" as="targetPoint" />
          </mxGeometry>
        </mxCell>
        <mxCell id="A85PYch1o4Z-2x9sGvwN-60" value="" style="endArrow=none;html=1;rounded=0;exitX=0.5;exitY=1;exitDx=0;exitDy=0;" edge="1" parent="1" source="A85PYch1o4Z-2x9sGvwN-40">
          <mxGeometry width="50" height="50" relative="1" as="geometry">
            <mxPoint x="929.5" y="557.5" as="sourcePoint" />
            <mxPoint x="929.5" y="722.5" as="targetPoint" />
          </mxGeometry>
        </mxCell>
        <mxCell id="A85PYch1o4Z-2x9sGvwN-62" value="" style="endArrow=none;html=1;rounded=0;" edge="1" parent="1">
          <mxGeometry width="50" height="50" relative="1" as="geometry">
            <mxPoint x="660" y="425" as="sourcePoint" />
            <mxPoint x="720" y="425" as="targetPoint" />
          </mxGeometry>
        </mxCell>
        <mxCell id="A85PYch1o4Z-2x9sGvwN-63" value="" style="endArrow=none;html=1;rounded=0;" edge="1" parent="1">
          <mxGeometry width="50" height="50" relative="1" as="geometry">
            <mxPoint x="720" y="425" as="sourcePoint" />
            <mxPoint x="720" y="480" as="targetPoint" />
          </mxGeometry>
        </mxCell>
        <mxCell id="A85PYch1o4Z-2x9sGvwN-64" value="" style="endArrow=classic;html=1;rounded=0;entryX=0;entryY=0.625;entryDx=0;entryDy=0;entryPerimeter=0;" edge="1" parent="1" target="A85PYch1o4Z-2x9sGvwN-39">
          <mxGeometry width="50" height="50" relative="1" as="geometry">
            <mxPoint x="720" y="480" as="sourcePoint" />
            <mxPoint x="770" y="430" as="targetPoint" />
          </mxGeometry>
        </mxCell>
        <mxCell id="A85PYch1o4Z-2x9sGvwN-65" value="" style="endArrow=none;html=1;rounded=0;" edge="1" parent="1">
          <mxGeometry width="50" height="50" relative="1" as="geometry">
            <mxPoint x="610" y="675" as="sourcePoint" />
            <mxPoint x="790" y="670" as="targetPoint" />
          </mxGeometry>
        </mxCell>
        <mxCell id="A85PYch1o4Z-2x9sGvwN-66" value="" style="endArrow=classic;html=1;rounded=0;" edge="1" parent="1">
          <mxGeometry width="50" height="50" relative="1" as="geometry">
            <mxPoint x="795" y="670" as="sourcePoint" />
            <mxPoint x="800" y="500" as="targetPoint" />
          </mxGeometry>
        </mxCell>
        <mxCell id="A85PYch1o4Z-2x9sGvwN-67" value="" style="endArrow=none;html=1;rounded=0;" edge="1" parent="1">
          <mxGeometry width="50" height="50" relative="1" as="geometry">
            <mxPoint x="400" y="730" as="sourcePoint" />
            <mxPoint x="930" y="720" as="targetPoint" />
          </mxGeometry>
        </mxCell>
        <mxCell id="A85PYch1o4Z-2x9sGvwN-68" value="" style="endArrow=classic;html=1;rounded=0;entryX=0.5;entryY=1;entryDx=0;entryDy=0;" edge="1" parent="1" target="A85PYch1o4Z-2x9sGvwN-29">
          <mxGeometry width="50" height="50" relative="1" as="geometry">
            <mxPoint x="400" y="730" as="sourcePoint" />
            <mxPoint x="460" y="680" as="targetPoint" />
          </mxGeometry>
        </mxCell>
        <mxCell id="A85PYch1o4Z-2x9sGvwN-69" value="Perform detailed&lt;br&gt;technical&lt;br&gt;diagnosis" style="text;html=1;resizable=0;autosize=1;align=center;verticalAlign=middle;points=[];fillColor=none;strokeColor=none;rounded=0;" vertex="1" parent="1">
          <mxGeometry x="695" y="160" width="110" height="60" as="geometry" />
        </mxCell>
        <mxCell id="A85PYch1o4Z-2x9sGvwN-70" value="Are new parts/&lt;br&gt;assembly required?" style="text;html=1;resizable=0;autosize=1;align=center;verticalAlign=middle;points=[];fillColor=none;strokeColor=none;rounded=0;" vertex="1" parent="1">
          <mxGeometry x="610" y="240" width="130" height="40" as="geometry" />
        </mxCell>
        <mxCell id="A85PYch1o4Z-2x9sGvwN-71" value="Book required parts" style="text;html=1;resizable=0;autosize=1;align=center;verticalAlign=middle;points=[];fillColor=none;strokeColor=none;rounded=0;" vertex="1" parent="1">
          <mxGeometry x="575" y="325" width="130" height="30" as="geometry" />
        </mxCell>
        <mxCell id="A85PYch1o4Z-2x9sGvwN-72" value="Book technical&lt;br&gt;specialist" style="text;html=1;resizable=0;autosize=1;align=center;verticalAlign=middle;points=[];fillColor=none;strokeColor=none;rounded=0;" vertex="1" parent="1">
          <mxGeometry x="880" y="445" width="100" height="40" as="geometry" />
        </mxCell>
        <mxCell id="A85PYch1o4Z-2x9sGvwN-73" value="Order parts from&lt;br&gt;vendor" style="text;html=1;resizable=0;autosize=1;align=center;verticalAlign=middle;points=[];fillColor=none;strokeColor=none;rounded=0;" vertex="1" parent="1">
          <mxGeometry x="495" y="540" width="110" height="40" as="geometry" />
        </mxCell>
        <mxCell id="A85PYch1o4Z-2x9sGvwN-74" value="Are parts/assembly&amp;nbsp;&lt;br&gt;in stock?" style="text;html=1;resizable=0;autosize=1;align=center;verticalAlign=middle;points=[];fillColor=none;strokeColor=none;rounded=0;" vertex="1" parent="1">
          <mxGeometry x="570" y="445" width="130" height="40" as="geometry" />
        </mxCell>
        <mxCell id="A85PYch1o4Z-2x9sGvwN-75" value="Yes" style="text;html=1;resizable=0;autosize=1;align=center;verticalAlign=middle;points=[];fillColor=none;strokeColor=none;rounded=0;" vertex="1" parent="1">
          <mxGeometry x="665" y="410" width="40" height="30" as="geometry" />
        </mxCell>
        <mxCell id="A85PYch1o4Z-2x9sGvwN-76" value="No" style="text;html=1;resizable=0;autosize=1;align=center;verticalAlign=middle;points=[];fillColor=none;strokeColor=none;rounded=0;" vertex="1" parent="1">
          <mxGeometry x="570" y="410" width="40" height="30" as="geometry" />
        </mxCell>
        <mxCell id="A85PYch1o4Z-2x9sGvwN-77" value="Put parts into&lt;br&gt;stock" style="text;html=1;resizable=0;autosize=1;align=center;verticalAlign=middle;points=[];fillColor=none;strokeColor=none;rounded=0;" vertex="1" parent="1">
          <mxGeometry x="500" y="650" width="90" height="40" as="geometry" />
        </mxCell>
        <mxCell id="A85PYch1o4Z-2x9sGvwN-78" value="Is vehicle ok?" style="text;html=1;resizable=0;autosize=1;align=center;verticalAlign=middle;points=[];fillColor=none;strokeColor=none;rounded=0;" vertex="1" parent="1">
          <mxGeometry x="260" y="800" width="100" height="30" as="geometry" />
        </mxCell>
        <mxCell id="A85PYch1o4Z-2x9sGvwN-79" value="Vrooom, vroom!" style="text;html=1;resizable=0;autosize=1;align=center;verticalAlign=middle;points=[];fillColor=none;strokeColor=none;rounded=0;" vertex="1" parent="1">
          <mxGeometry x="35" y="795" width="110" height="30" as="geometry" />
        </mxCell>
        <mxCell id="A85PYch1o4Z-2x9sGvwN-81" value="&lt;font style=&quot;font-size: 18px;&quot;&gt;Maintenance activity diagram&lt;/font&gt;&lt;br&gt;Project: Fleet management system" style="text;html=1;align=center;verticalAlign=middle;resizable=0;points=[];autosize=1;strokeColor=none;fillColor=none;fontSize=14;" vertex="1" parent="1">
          <mxGeometry x="90" y="-155" width="260" height="50" as="geometry" />
        </mxCell>
      </root>
    </mxGraphModel>
  </diagram>
</mxfile>
